<?xml version="1.0" encoding="UTF-8" standalone="no"?><!DOCTYPE svg PUBLIC "-//W3C//DTD SVG 1.1//EN" "http://www.w3.org/Graphics/SVG/1.1/DTD/svg11.dtd"><svg width="100%" height="100%" viewBox="0 0 152 82" version="1.1" xmlns="http://www.w3.org/2000/svg" xmlns:xlink="http://www.w3.org/1999/xlink" xml:space="preserve" xmlns:serif="http://www.serif.com/" style="fill-rule:evenodd;clip-rule:evenodd;stroke-linecap:round;stroke-linejoin:round;stroke-miterlimit:1.5;"><g transform="matrix(0.151425,0,0,0.163957,29.0461,-192.658)"><text x="257.376px" y="1446.49px" style="font-family:'Krungthep';font-size:109.785px;fill:#496a81;">MATTHIEU</text><text x="399.153px" y="1556.28px" style="font-family:'Krungthep';font-size:109.785px;fill:#496a81;">LABS</text></g><g><path d="M8.086,8.967l4.128,-1.311l4.833,15.218" style="fill:none;stroke:#2b3a67;stroke-width:4px;"/><path d="M29.063,2l-3.918,1.244l4.833,15.218" style="fill:none;stroke:#2b3a67;stroke-width:4px;"/><path d="M30.016,18.462c13.183,1.82 24.462,5.869 30.132,21.418c5.66,15.522 -3.535,32.914 -19.22,37.895c-15.685,4.981 -32.842,-3.873 -37.48,-19.506c-4.475,-15.084 1.805,-27.556 13.599,-35.395" style="fill:none;stroke:#2b3a67;stroke-width:4px;"/></g><g><path d="M8.086,8.967l4.128,-1.311l4.833,15.218" style="fill:none;stroke:#2b3a67;stroke-width:4px;"/><path d="M29.063,2l-3.918,1.244l4.833,15.218" style="fill:none;stroke:#2b3a67;stroke-width:4px;"/><path d="M30.016,18.462c13.183,1.82 24.462,5.869 30.132,21.418c5.66,15.522 -3.535,32.914 -19.22,37.895c-15.685,4.981 -32.842,-3.873 -37.48,-19.506c-4.475,-15.084 1.805,-27.556 13.599,-35.395" style="fill:none;stroke:#2b3a67;stroke-width:4px;"/></g><path d="M21.819,36.566c3.013,-0.957 6.228,0.689 7.176,3.674c0.948,2.984 -0.729,6.184 -3.741,7.141c-3.013,0.957 -6.229,-0.689 -7.177,-3.674c-0.948,-2.985 0.729,-6.185 3.742,-7.141Z" style="fill:#66999b;"/><path d="M22.285,16.438c1.537,-0.488 3.186,0.379 3.681,1.936c0.494,1.556 -0.353,3.216 -1.89,3.704c-1.537,0.488 -3.186,-0.379 -3.68,-1.936c-0.494,-1.556 0.352,-3.216 1.889,-3.704Z" style="fill:#66999b;"/><path d="M20.594,7.794c1.047,-0.333 2.165,0.24 2.495,1.277c0.329,1.038 -0.254,2.15 -1.301,2.483c-1.047,0.333 -2.165,-0.24 -2.494,-1.277c-0.33,-1.038 0.253,-2.15 1.3,-2.483Z" style="fill:#66999b;"/><path d="M27.948,24.656c2.342,-0.743 4.831,0.504 5.555,2.785c0.725,2.28 -0.589,4.735 -2.931,5.479c-2.342,0.744 -4.831,-0.504 -5.555,-2.784c-0.724,-2.281 0.589,-4.736 2.931,-5.48Z" style="fill:#66999b;"/><path d="M30.885,39.494c16.463,-7.717 14.527,-15.524 22.112,-4.881c10.853,15.227 1.812,34.656 -13.259,39.366c-21.336,6.668 -36.497,-12.972 -33.418,-28.711c1.763,-9.013 13.288,-0.487 24.565,-5.774Z" style="fill:#66999b;"/><text x="22.44px" y="59.741px" style="font-family:'PTSans-Caption', 'PT Sans Caption', sans-serif;font-size:14px;fill:#fff;">&lt;/&gt;</text></svg>